<svg width="28" height="28" viewBox="0 0 28 28" fill="none" xmlns="http://www.w3.org/2000/svg">
<path d="M2.69508 13.1157C2.65219 12.9437 2.64904 12.7643 2.68586 12.5909C2.72269 12.4176 2.79851 12.2549 2.90759 12.1152C3.01667 11.9756 3.15613 11.8626 3.3154 11.7848C3.47466 11.7071 3.64953 11.6667 3.82674 11.6667H24.1734C24.3506 11.6667 24.5255 11.7071 24.6848 11.7848C24.844 11.8626 24.9835 11.9756 25.0926 12.1152C25.2016 12.2549 25.2775 12.4176 25.3143 12.5909C25.3511 12.7643 25.348 12.9437 25.3051 13.1157L23.1922 21.5658C23.0661 22.0706 22.7748 22.5188 22.3647 22.839C21.9546 23.1593 21.4492 23.3332 20.9289 23.3333H7.07125C6.55092 23.3332 6.04555 23.1593 5.63546 22.839C5.22537 22.5188 4.93409 22.0706 4.80791 21.5658L2.69508 13.1168V13.1157Z" stroke="#2D2D31" stroke-width="3" stroke-linejoin="round"/>
<path d="M10.5 16.3333V18.6667M17.5 16.3333V18.6667M7 11.6667L11.6667 4.66666M21 11.6667L16.3333 4.66666" stroke="#2D2D31" stroke-width="3" stroke-linecap="round"/>
</svg>
