<svg width="22" height="23" viewBox="0 0 22 23" fill="none" xmlns="http://www.w3.org/2000/svg">
<g clip-path="url(#clip0_398_71)">
<path d="M11 11.9287C12.5188 11.9287 13.75 10.6975 13.75 9.17871C13.75 7.65993 12.5188 6.42871 11 6.42871C9.48122 6.42871 8.25 7.65993 8.25 9.17871C8.25 10.6975 9.48122 11.9287 11 11.9287Z" stroke="#F73B3B" stroke-width="2" stroke-linecap="round" stroke-linejoin="round"/>
<path d="M11.0001 1.84546C9.05516 1.84546 7.1899 2.61808 5.81463 3.99334C4.43937 5.36861 3.66675 7.23387 3.66675 9.17879C3.66675 10.9131 4.03525 12.048 5.04175 13.3038L11.0001 20.1788L16.9584 13.3038C17.9649 12.048 18.3334 10.9131 18.3334 9.17879C18.3334 7.23387 17.5608 5.36861 16.1855 3.99334C14.8103 2.61808 12.945 1.84546 11.0001 1.84546V1.84546Z" stroke="#F73B3B" stroke-width="2" stroke-linecap="round" stroke-linejoin="round"/>
</g>
<defs>
<clipPath id="clip0_398_71">
<rect width="22" height="22" fill="white" transform="translate(0 0.012207)"/>
</clipPath>
</defs>
</svg>
