<svg width="36" height="25" viewBox="0 0 36 25" fill="none" xmlns="http://www.w3.org/2000/svg">
<g clip-path="url(#clip0_1092_282)">
<path d="M18.8 4.62997V9.33997C18.7974 10.3682 18.3877 11.3536 17.6607 12.0806C16.9336 12.8077 15.9482 13.2173 14.92 13.22H7.55002V15.22C7.55176 15.3552 7.51125 15.4876 7.43418 15.5988C7.3571 15.7099 7.2473 15.7942 7.12003 15.84C7.04711 15.8707 6.96911 15.8877 6.89002 15.89C6.7929 15.8881 6.69729 15.8658 6.60941 15.8244C6.52152 15.7831 6.44333 15.7236 6.38001 15.65L1.94003 10.47C1.15181 9.54734 0.719136 8.37346 0.720033 7.15997V4.58997C0.720033 3.56093 1.12881 2.57405 1.85645 1.84641C2.58409 1.11876 3.57097 0.709961 4.60001 0.709961H14.92C15.4329 0.709934 15.9408 0.811609 16.4141 1.00909C16.8875 1.20658 17.317 1.49597 17.6778 1.8605C18.0386 2.22504 18.3236 2.6575 18.5162 3.13287C18.7089 3.60824 18.8053 4.11709 18.8 4.62997Z" fill="white" stroke="#00205B" stroke-width="1.5" stroke-miterlimit="10"/>
<path d="M12.67 10.44V16.21C12.6726 17.4716 13.175 18.6808 14.0671 19.5729C14.9592 20.465 16.1684 20.9674 17.43 20.97H26.43V23.44C26.4301 23.6082 26.482 23.7724 26.5786 23.9101C26.6752 24.0479 26.8119 24.1525 26.97 24.21C27.0586 24.2468 27.1541 24.2639 27.25 24.26C27.3672 24.2592 27.4828 24.2338 27.5896 24.1856C27.6964 24.1374 27.7919 24.0673 27.87 23.98L33.31 17.62C34.282 16.4904 34.8176 15.0502 34.82 13.56V10.44C34.82 9.17757 34.3185 7.96686 33.4258 7.07419C32.5331 6.18152 31.3224 5.67999 30.06 5.67999H17.43C16.1676 5.67999 14.9568 6.18152 14.0641 7.07419C13.1715 7.96686 12.67 9.17757 12.67 10.44Z" fill="white" stroke="#00205B" stroke-width="1.5" stroke-miterlimit="10"/>
</g>
<defs>
<clipPath id="clip0_1092_282">
<rect width="35.61" height="25" fill="white"/>
</clipPath>
</defs>
</svg>
